<svg width="200" height="100" viewBox="0 0 200 100" fill="none" xmlns="http://www.w3.org/2000/svg">
<mask id="mask0_193_2146" style="mask-type:luminance" maskUnits="userSpaceOnUse" x="0" y="0" width="200" height="100">
<path d="M200 0.12677H0V99.1833H200V0.12677Z" fill="white"/>
</mask>
<g mask="url(#mask0_193_2146)">
<path d="M64.7077 17.785C54.979 17.785 47.0592 25.7049 47.0592 35.4335C47.0592 45.1622 54.979 53.082 64.7077 53.082C74.4363 53.082 82.3562 45.1622 82.3562 35.4335C82.3562 25.7049 74.4363 17.785 64.7077 17.785ZM64.7077 47.1959C58.2251 47.1959 52.9453 41.9161 52.9453 35.4335C52.9453 28.951 58.2251 23.6711 64.7077 23.6711C71.1902 23.6711 76.4701 28.951 76.4701 35.4335C76.4701 41.9161 71.1902 47.1959 64.7077 47.1959ZM94.1186 0.12677H100.005V52.1923H94.1186V0.12677ZM200 18.665V52.1923H194.114V24.5413H182.351V52.1923H176.465V24.5413H164.703V52.1923H158.817V18.665H199.99H200ZM36.3625 12.554L27.856 21.0507C24.9717 18.9975 21.442 17.7753 17.6385 17.7753C7.90982 17.7753 -0.0100098 25.6951 -0.0100098 35.4238C-0.0100098 44.1551 6.36496 51.4198 14.6954 52.818V59.2028C6.36496 60.6108 -0.0100098 67.8755 -0.0100098 76.5971C-0.0100098 86.3257 7.90982 94.2456 17.6385 94.2456C27.3672 94.2456 35.287 86.3257 35.287 76.5971C35.287 67.8657 28.912 60.601 20.5815 59.2028V52.818C28.912 51.4101 35.287 44.1453 35.287 35.4238C35.287 31.6203 34.0746 28.0906 32.0115 25.2062L40.5082 16.6997L36.3527 12.5443L36.3625 12.554ZM29.4107 76.6068C29.4107 83.0894 24.1308 88.3692 17.6483 88.3692C11.1657 88.3692 5.88586 83.0894 5.88586 76.6068C5.88586 70.1243 11.1657 64.8444 17.6483 64.8444C24.1308 64.8444 29.4107 70.1243 29.4107 76.6068ZM17.6483 47.1959C11.1657 47.1959 5.88586 41.9161 5.88586 35.4335C5.88586 28.951 11.1657 23.6711 17.6483 23.6711C24.1308 23.6711 29.4107 28.951 29.4107 35.4335C29.4107 41.9161 24.1308 47.1959 17.6483 47.1959ZM129.709 17.785C124.703 17.785 120.166 19.6134 116.939 22.9378C113.791 26.1742 112.06 30.6132 112.06 35.4335C112.06 40.2539 113.752 44.7124 116.812 47.9097C120.058 51.2927 124.517 53.082 129.709 53.082C135.292 53.082 141.09 50.3639 144.121 46.316L139.418 42.7863C137.472 45.3871 133.483 47.1959 129.709 47.1959C123.598 47.1959 119.227 43.6271 118.181 38.0735H146.771V35.1304C146.771 30.447 145.118 26.1155 142.107 22.928C138.968 19.6037 134.568 17.7753 129.709 17.7753M118.328 32.1972C119.599 27.0444 123.921 23.6711 129.709 23.6711C135.497 23.6711 139.438 27.0542 140.572 32.1972H118.318H118.328Z" fill="white"/>
<path d="M196.901 91.8551C196.206 91.8551 195.609 91.7144 195.107 91.4331C194.609 91.1489 194.225 90.7474 193.956 90.2287C193.686 89.707 193.551 89.0901 193.551 88.378C193.551 87.6835 193.686 87.0739 193.956 86.5493C194.225 86.0248 194.605 85.6159 195.094 85.3229C195.587 85.0298 196.164 84.8833 196.826 84.8833C197.272 84.8833 197.686 84.9551 198.07 85.0987C198.457 85.2394 198.794 85.4518 199.081 85.7361C199.371 86.0204 199.597 86.3779 199.758 86.8087C199.919 87.2365 200 87.7377 200 88.3121V88.8264H194.299V87.6659H198.237C198.237 87.3963 198.179 87.1574 198.061 86.9494C197.944 86.7413 197.782 86.5786 197.573 86.4614C197.368 86.3413 197.13 86.2812 196.857 86.2812C196.573 86.2812 196.321 86.3471 196.101 86.479C195.884 86.6079 195.714 86.7823 195.591 87.0021C195.468 87.219 195.405 87.4607 195.402 87.7274V88.8308C195.402 89.1649 195.463 89.4535 195.587 89.6968C195.713 89.94 195.89 90.1275 196.118 90.2594C196.347 90.3913 196.618 90.4572 196.932 90.4572C197.14 90.4572 197.33 90.4279 197.503 90.3693C197.676 90.3107 197.824 90.2228 197.947 90.1056C198.07 89.9883 198.164 89.8448 198.228 89.6748L199.96 89.7891C199.873 90.2052 199.692 90.5686 199.42 90.8792C199.15 91.1869 198.801 91.4273 198.374 91.6002C197.949 91.7701 197.458 91.8551 196.901 91.8551Z" fill="white"/>
<path d="M192.676 84.9712V86.3779H188.61V84.9712H192.676ZM189.533 83.3535H191.406V89.6484C191.406 89.8213 191.432 89.9561 191.485 90.0528C191.538 90.1466 191.611 90.2125 191.705 90.2506C191.802 90.2887 191.913 90.3078 192.039 90.3078C192.127 90.3078 192.215 90.3004 192.303 90.2858C192.391 90.2682 192.458 90.255 192.505 90.2462L192.8 91.6397C192.706 91.669 192.574 91.7027 192.404 91.7408C192.234 91.7818 192.027 91.8067 191.784 91.8155C191.333 91.8331 190.937 91.773 190.597 91.6353C190.26 91.4976 189.998 91.2836 189.81 90.9935C189.623 90.7034 189.531 90.3371 189.533 89.8946V83.3535Z" fill="white"/>
<path d="M187.752 86.8966L186.038 87.0021C186.008 86.8556 185.945 86.7237 185.849 86.6065C185.752 86.4863 185.625 86.3911 185.466 86.3207C185.311 86.2475 185.125 86.2108 184.908 86.2108C184.618 86.2108 184.373 86.2724 184.174 86.3955C183.975 86.5156 183.875 86.6768 183.875 86.879C183.875 87.0402 183.939 87.1765 184.068 87.2878C184.197 87.3992 184.419 87.4886 184.732 87.556L185.954 87.8021C186.611 87.937 187.1 88.1538 187.422 88.4527C187.745 88.7516 187.906 89.1443 187.906 89.6308C187.906 90.0733 187.776 90.4616 187.515 90.7957C187.257 91.1298 186.902 91.3906 186.451 91.5782C186.003 91.7628 185.485 91.8551 184.899 91.8551C184.005 91.8551 183.293 91.669 182.763 91.2968C182.235 90.9217 181.926 90.4118 181.835 89.7671L183.677 89.6704C183.733 89.9429 183.868 90.151 184.082 90.2946C184.296 90.4353 184.57 90.5056 184.904 90.5056C185.232 90.5056 185.496 90.4426 185.695 90.3166C185.897 90.1876 186 90.022 186.003 89.8198C186 89.6499 185.928 89.5107 185.787 89.4022C185.647 89.2909 185.43 89.2059 185.137 89.1473L183.967 88.9143C183.308 88.7824 182.817 88.5538 182.495 88.2285C182.175 87.9033 182.016 87.4886 182.016 86.9845C182.016 86.5508 182.133 86.1771 182.367 85.8636C182.605 85.55 182.937 85.3082 183.365 85.1383C183.796 84.9683 184.3 84.8833 184.877 84.8833C185.73 84.8833 186.401 85.0635 186.891 85.424C187.383 85.7845 187.67 86.2753 187.752 86.8966Z" fill="white"/>
<path d="M176.879 91.8507C176.448 91.8507 176.064 91.776 175.727 91.6265C175.39 91.4741 175.124 91.25 174.927 90.954C174.734 90.6551 174.637 90.2829 174.637 89.8374C174.637 89.4623 174.706 89.1473 174.844 88.8923C174.981 88.6374 175.169 88.4322 175.406 88.2769C175.644 88.1216 175.913 88.0044 176.215 87.9252C176.52 87.8461 176.839 87.7904 177.173 87.7582C177.566 87.7172 177.883 87.6791 178.123 87.6439C178.363 87.6058 178.538 87.5501 178.646 87.4769C178.755 87.4036 178.809 87.2952 178.809 87.1516V87.1252C178.809 86.8468 178.721 86.6314 178.545 86.479C178.372 86.3266 178.126 86.2504 177.806 86.2504C177.469 86.2504 177.201 86.3251 177.002 86.4746C176.803 86.6211 176.671 86.8058 176.606 87.0285L174.874 86.8878C174.962 86.4775 175.135 86.1229 175.393 85.824C175.651 85.5222 175.984 85.2907 176.391 85.1295C176.801 84.9654 177.276 84.8833 177.815 84.8833C178.19 84.8833 178.549 84.9273 178.892 85.0152C179.238 85.1031 179.544 85.2394 179.811 85.424C180.081 85.6086 180.293 85.846 180.448 86.1361C180.604 86.4233 180.681 86.7677 180.681 87.1691V91.7232H178.905V90.7869H178.853C178.744 90.9979 178.599 91.184 178.418 91.3452C178.236 91.5034 178.017 91.628 177.763 91.7188C177.508 91.8068 177.213 91.8507 176.879 91.8507ZM177.415 90.5583C177.691 90.5583 177.934 90.5041 178.145 90.3957C178.356 90.2843 178.522 90.1349 178.642 89.9473C178.762 89.7598 178.822 89.5473 178.822 89.3099V88.5934C178.763 88.6315 178.683 88.6667 178.58 88.6989C178.481 88.7282 178.368 88.756 178.242 88.7824C178.116 88.8059 177.99 88.8278 177.864 88.8484C177.738 88.8659 177.623 88.8821 177.521 88.8967C177.301 88.9289 177.109 88.9802 176.945 89.0506C176.781 89.1209 176.653 89.2161 176.562 89.3363C176.472 89.4535 176.426 89.6 176.426 89.7759C176.426 90.0308 176.518 90.2257 176.703 90.3605C176.891 90.4924 177.128 90.5583 177.415 90.5583Z" fill="white"/>
<path d="M167.155 91.7232V82.7206H170.707C171.39 82.7206 171.972 82.851 172.452 83.1118C172.933 83.3697 173.299 83.7287 173.551 84.1888C173.806 84.6459 173.934 85.1734 173.934 85.7713C173.934 86.3691 173.805 86.8966 173.547 87.3538C173.289 87.8109 172.915 88.167 172.426 88.422C171.94 88.6769 171.35 88.8044 170.659 88.8044H168.395V87.279H170.351C170.717 87.279 171.019 87.216 171.257 87.09C171.497 86.9611 171.676 86.7838 171.793 86.5581C171.913 86.3295 171.973 86.0673 171.973 85.7713C171.973 85.4723 171.913 85.2115 171.793 84.9888C171.676 84.7632 171.497 84.5888 171.257 84.4657C171.016 84.3397 170.712 84.2767 170.342 84.2767H169.059V91.7232H167.155Z" fill="white"/>
<path d="M161.739 91.8331C161.226 91.8331 160.761 91.7013 160.345 91.4375C159.932 91.1708 159.604 90.7796 159.36 90.2638C159.12 89.7451 159 89.1092 159 88.356C159 87.5824 159.125 86.9391 159.374 86.4262C159.623 85.9105 159.954 85.5251 160.367 85.2701C160.783 85.0123 161.239 84.8833 161.734 84.8833C162.112 84.8833 162.427 84.9478 162.679 85.0767C162.934 85.2027 163.139 85.361 163.295 85.5515C163.453 85.739 163.573 85.9237 163.655 86.1054H163.712V82.7206H165.581V91.7232H163.734V90.6419H163.655C163.567 90.8294 163.443 91.0155 163.282 91.2001C163.123 91.3818 162.917 91.5328 162.662 91.6529C162.41 91.7731 162.102 91.8331 161.739 91.8331ZM162.332 90.3429C162.634 90.3429 162.889 90.2609 163.097 90.0968C163.308 89.9297 163.469 89.6968 163.58 89.3978C163.695 89.0989 163.752 88.7487 163.752 88.3472C163.752 87.9457 163.696 87.597 163.585 87.301C163.474 87.005 163.312 86.7765 163.101 86.6153C162.89 86.4541 162.634 86.3735 162.332 86.3735C162.024 86.3735 161.765 86.457 161.554 86.6241C161.343 86.7911 161.183 87.0226 161.075 87.3186C160.966 87.6146 160.912 87.9575 160.912 88.3472C160.912 88.7399 160.966 89.0872 161.075 89.3891C161.186 89.688 161.346 89.9224 161.554 90.0924C161.765 90.2594 162.024 90.3429 162.332 90.3429Z" fill="white"/>
<path d="M200 73.3887V74.6113H159V73.3887H200Z" fill="white"/>
</g>
</svg>
